<?xml version="1.0" ?><svg xmlns="http://www.w3.org/2000/svg" xmlns:xlink="http://www.w3.org/1999/xlink" version="1.1" id="Layer_1" viewBox="0 0 48 48" enable-background="new 0 0 48 48" xml:space="preserve"><path d="M35,2H17c-0.265625,0-0.5195313,0.1054688-0.7070313,0.2929688l-8,8C8.1054688,10.4804688,8,10.734375,8,11v30  c0,2.7568359,2.2431641,5,5,5h22c2.7568359,0,5-2.2431641,5-5V7C40,4.2431641,37.7568359,2,35,2z M38,41  c0,1.6542969-1.3457031,3-3,3H13c-1.6542969,0-3-1.3457031-3-3V11.4140625L17.4140625,4H35c1.6542969,0,3,1.3457031,3,3V41z M17,14  h-5c-0.5527344,0-1-0.4472656-1-1s0.4472656-1,1-1h5c0.5517578,0,1-0.4482422,1-1V6c0-0.5527344,0.4472656-1,1-1s1,0.4472656,1,1v5  C20,12.6542969,18.6542969,14,17,14z M24,18c-4.4111328,0-8,3.5888672-8,8s3.5888672,8,8,8s8-3.5888672,8-8S28.4111328,18,24,18z   M24,32c-3.3085938,0-6-2.6914063-6-6s2.6914063-6,6-6s6,2.6914063,6,6S27.3085938,32,24,32z M28,26c0,0.5527344-0.4472656,1-1,1h-2  v2c0,0.5527344-0.4472656,1-1,1s-1-0.4472656-1-1v-2h-2c-0.5527344,0-1-0.4472656-1-1s0.4472656-1,1-1h2v-2  c0-0.5527344,0.4472656-1,1-1s1,0.4472656,1,1v2h2C27.5527344,25,28,25.4472656,28,26z"/></svg>