<svg width="145" height="21" viewBox="0 0 145 21" fill="none" xmlns="http://www.w3.org/2000/svg">
<path d="M31.154 0.454023C31.1226 0.509052 29.173 5.1393 26.8382 10.7365L22.5775 20.9167L24.5506 20.9403C25.6433 20.9482 26.5631 20.9482 26.6103 20.9246C26.6574 20.9089 27.1055 19.9184 27.6008 18.7235L28.4969 16.5538L33.8819 16.5774L39.2668 16.5931L40.1473 18.7549L41.0277 20.9167L43.0795 20.9403L45.1391 20.9561L45.092 20.7831C45.0684 20.6809 43.1895 16.0585 40.9255 10.5006L36.8062 0.398994L34.0155 0.375412C31.8301 0.35969 31.2091 0.383272 31.154 0.454023ZM35.9258 8.4017L37.8596 13.1342L33.929 13.1577C31.7751 13.1656 29.9906 13.1577 29.9749 13.142C29.9277 13.1027 33.9133 3.59065 33.9605 3.63781C33.9841 3.65354 34.8645 5.79965 35.9258 8.4017Z" fill="#FFCB02"/>
<path d="M45.9253 0.689863C46.0668 0.87067 48.0871 3.42556 50.4062 6.36565L54.6277 11.7191L54.6355 16.3337V20.9561H56.6008H58.5661V16.3337L58.574 11.7191L62.937 6.17698C65.3346 3.12684 67.3314 0.571945 67.3785 0.493332C67.4493 0.367554 67.3156 0.359692 65.0673 0.359692H62.6854L59.6667 4.20382C58.0001 6.32635 56.6244 8.04009 56.6008 8.01651C56.5772 7.99292 55.2172 6.27132 53.5664 4.1881L50.5791 0.398998L48.1186 0.375414L45.658 0.359692L45.9253 0.689863Z" fill="#FFCB02"/>
<path d="M79.3981 0.446177C77.0476 0.713457 74.9801 1.71183 73.3056 3.38627C71.4818 5.20221 70.5385 7.19895 70.2712 9.80101C70.0825 11.617 70.4756 13.6687 71.3561 15.3982C72.0243 16.7189 73.4943 18.3933 74.6814 19.1873C77.307 20.9403 80.4436 21.4435 83.368 20.6023C85.5062 19.9813 87.3065 18.7707 88.635 17.0648C89.0752 16.4988 89.539 15.7834 89.539 15.6733C89.539 15.634 87.613 14.5099 87.5423 14.5099C87.5266 14.5099 87.3615 14.7457 87.1728 15.0366C86.9841 15.3353 86.5518 15.862 86.2137 16.2158C85.1603 17.3163 84.0047 18.0003 82.4875 18.4169C81.8036 18.6134 81.5835 18.637 80.4986 18.6291C79.5003 18.6291 79.1544 18.5977 78.5805 18.4562C77.818 18.2675 76.6545 17.7487 76.0413 17.3321C74.4377 16.2393 73.2428 14.5492 72.7475 12.6625C72.5667 11.9786 72.5352 11.7191 72.5352 10.6972C72.5352 9.67523 72.5667 9.41581 72.7475 8.73189C73.3528 6.44428 74.8779 4.58117 77.0004 3.53563C78.2503 2.92246 78.9814 2.76523 80.4986 2.76523C81.5835 2.75737 81.8036 2.78096 82.4797 2.96962C83.4466 3.23691 84.1227 3.55135 84.9324 4.08592C85.6635 4.57331 86.6776 5.59527 87.1414 6.30278L87.4558 6.79017L88.4935 6.23203L89.5312 5.66602L89.3268 5.31226C89.2167 5.11573 88.9023 4.67551 88.635 4.32961C86.4653 1.53889 82.9042 0.0452557 79.3981 0.446177Z" fill="#121212"/>
<path d="M103.218 0.446173C100.867 0.713453 98.7998 1.71183 97.1254 3.38626C95.3016 5.2022 94.3583 7.19895 94.091 9.80101C93.9023 11.617 94.2954 13.6687 95.1758 15.3982C95.844 16.7189 97.3141 18.3933 98.5011 19.1873C101.127 20.9403 104.263 21.4435 107.188 20.6023C109.782 19.8476 111.904 18.1968 113.272 15.8777C114.876 13.1499 115.112 9.65951 113.878 6.73514C112.093 2.50581 107.73 -0.064806 103.218 0.446173ZM106.339 2.98534C107.801 3.38626 108.996 4.10163 110.018 5.17076C111.024 6.2163 111.669 7.34045 112.038 8.69258C112.195 9.26645 112.347 9.58679 112.347 10.6775C112.258 12.122 112.195 12.1279 112.038 12.7018C111.669 14.0539 111.024 15.1781 110.034 16.2158C108.98 17.3163 107.825 18.0003 106.307 18.4169C105.623 18.6134 105.403 18.637 104.318 18.6291C103.32 18.6291 102.974 18.5977 102.4 18.4562C101.638 18.2675 100.474 17.7487 99.8611 17.332C98.2574 16.2393 97.0625 14.5492 96.5673 12.6625C96.3865 11.9786 96.3098 11.7093 96.2803 10.6775C96.3098 9.67523 96.3865 9.41581 96.5673 8.73189C97.3612 5.70532 99.8139 3.41771 102.88 2.83598C103.815 2.66303 105.411 2.72592 106.339 2.98534Z" fill="#121212"/>
<path d="M121.613 10.6578V20.9639L122.698 20.9403L123.775 20.9167L123.814 12.2143L123.853 3.51985L127.957 12.2143L132.053 20.9167L133.311 20.9403L134.56 20.956L135.661 18.6212C136.266 17.332 138.122 13.3778 139.78 9.84026L142.799 3.40193L142.823 12.1829L142.838 20.9639L143.923 20.9403L145 20.9167V10.6578V0.398949L143.42 0.375366L141.84 0.359644L137.603 9.40003C135.268 14.3683 133.342 18.4404 133.318 18.4404C133.295 18.4404 131.361 14.384 129.026 9.41575L124.773 0.398949L123.193 0.375366L121.613 0.359644V10.6578Z" fill="#121212"/>
<path d="M0 10.6972V20.9561H5.21198C10.99 20.9561 11.2337 20.9403 12.7116 20.4451C16.9409 19.0301 19.7316 15.1545 19.7316 10.6972C19.7316 7.87501 18.7254 5.46948 16.7129 3.45701C15.4709 2.20708 14.3624 1.51529 12.7352 0.965004C11.2494 0.454025 11.0214 0.438303 5.21198 0.438303H0V10.6972ZM11.1236 4.27457C13.4427 4.91133 15.1564 6.55432 15.8796 8.81049C16.1469 9.65164 16.1862 11.1767 15.9661 12.1122C15.4551 14.2583 13.8829 16.0349 11.7997 16.7896C10.6598 17.2063 10.0938 17.2613 6.78422 17.2613H3.77338V10.65V4.03874L7.13798 4.07018C10.2982 4.10163 10.534 4.11735 11.1236 4.27457Z" fill="#FFCB02"/>
</svg>
