<?xml version="1.0" encoding="UTF-8" standalone="no"?>
<svg
   inkscape:export-ydpi="576"
   inkscape:export-xdpi="576"
   inkscape:export-filename="/media/taufikramadhan/Data/Tr Design Studio/Project Design/TR Creative Design/Icon Design/Project Hiring/Icon Icons/009 -  Hotel And Holidays/Send/1 - Line/SVG/15 - Newspaper.png"
   sodipodi:docname="15 - Newspaper.svg"
   inkscape:version="1.1.1 (1:1.1+202109281949+c3084ef5ed)"
   id="svg831"
   version="1.1"
   viewBox="0 0 22.577778 22.577778"
   height="64pt"
   width="64pt"
   xmlns:inkscape="http://www.inkscape.org/namespaces/inkscape"
   xmlns:sodipodi="http://sodipodi.sourceforge.net/DTD/sodipodi-0.dtd"
   xmlns="http://www.w3.org/2000/svg"
   xmlns:svg="http://www.w3.org/2000/svg"
   xmlns:rdf="http://www.w3.org/1999/02/22-rdf-syntax-ns#"
   xmlns:cc="http://creativecommons.org/ns#"
   xmlns:dc="http://purl.org/dc/elements/1.1/">
  <defs
     id="defs825">
    <pattern
       y="0"
       x="0"
       height="6"
       width="6"
       patternUnits="userSpaceOnUse"
       id="EMFhbasepattern" />
    <pattern
       y="0"
       x="0"
       height="6"
       width="6"
       patternUnits="userSpaceOnUse"
       id="EMFhbasepattern-9" />
    <pattern
       y="0"
       x="0"
       height="6"
       width="6"
       patternUnits="userSpaceOnUse"
       id="EMFhbasepattern-0" />
    <pattern
       y="0"
       x="0"
       height="6"
       width="6"
       patternUnits="userSpaceOnUse"
       id="EMFhbasepattern-7" />
    <pattern
       y="0"
       x="0"
       height="6"
       width="6"
       patternUnits="userSpaceOnUse"
       id="EMFhbasepattern-2" />
    <pattern
       y="0"
       x="0"
       height="6"
       width="6"
       patternUnits="userSpaceOnUse"
       id="EMFhbasepattern-98" />
    <pattern
       y="0"
       x="0"
       height="6"
       width="6"
       patternUnits="userSpaceOnUse"
       id="EMFhbasepattern-6" />
    <pattern
       y="0"
       x="0"
       height="6"
       width="6"
       patternUnits="userSpaceOnUse"
       id="EMFhbasepattern-01" />
    <pattern
       y="0"
       x="0"
       height="6"
       width="6"
       patternUnits="userSpaceOnUse"
       id="EMFhbasepattern-07" />
    <pattern
       y="0"
       x="0"
       height="6"
       width="6"
       patternUnits="userSpaceOnUse"
       id="EMFhbasepattern-8" />
    <pattern
       y="0"
       x="0"
       height="6"
       width="6"
       patternUnits="userSpaceOnUse"
       id="EMFhbasepattern-4" />
    <pattern
       y="0"
       x="0"
       height="6"
       width="6"
       patternUnits="userSpaceOnUse"
       id="EMFhbasepattern-40" />
    <pattern
       y="0"
       x="0"
       height="6"
       width="6"
       patternUnits="userSpaceOnUse"
       id="EMFhbasepattern-08" />
    <pattern
       y="0"
       x="0"
       height="6"
       width="6"
       patternUnits="userSpaceOnUse"
       id="EMFhbasepattern-04" />
    <pattern
       y="0"
       x="0"
       height="6"
       width="6"
       patternUnits="userSpaceOnUse"
       id="EMFhbasepattern-014" />
    <pattern
       y="0"
       x="0"
       height="6"
       width="6"
       patternUnits="userSpaceOnUse"
       id="EMFhbasepattern-27" />
    <pattern
       y="0"
       x="0"
       height="6"
       width="6"
       patternUnits="userSpaceOnUse"
       id="EMFhbasepattern-09" />
    <pattern
       y="0"
       x="0"
       height="6"
       width="6"
       patternUnits="userSpaceOnUse"
       id="EMFhbasepattern-5" />
    <pattern
       y="0"
       x="0"
       height="6"
       width="6"
       patternUnits="userSpaceOnUse"
       id="EMFhbasepattern-018" />
  </defs>
  <sodipodi:namedview
     inkscape:document-rotation="0"
     inkscape:snap-global="true"
     inkscape:snap-nodes="false"
     inkscape:bbox-nodes="true"
     inkscape:snap-bbox="true"
     showguides="true"
     inkscape:snap-midpoints="true"
     inkscape:snap-smooth-nodes="true"
     inkscape:snap-intersection-paths="true"
     inkscape:object-paths="true"
     inkscape:showpageshadow="false"
     inkscape:pagecheckerboard="true"
     inkscape:window-maximized="1"
     inkscape:window-y="31"
     inkscape:window-x="0"
     inkscape:window-height="705"
     inkscape:window-width="1366"
     units="pt"
     showgrid="false"
     inkscape:current-layer="layer1"
     inkscape:document-units="pt"
     inkscape:cy="53.209785"
     inkscape:cx="46.757436"
     inkscape:zoom="5.6568543"
     inkscape:pageshadow="2"
     inkscape:pageopacity="0.0"
     borderopacity="1.0"
     bordercolor="#666666"
     pagecolor="#ffffff"
     id="base">
    <inkscape:grid
       id="grid1378"
       type="xygrid" />
    <sodipodi:guide
       inkscape:locked="false"
       id="guide1380"
       orientation="78.000048,0"
       position="0.97013831,21.607643" />
    <sodipodi:guide
       inkscape:locked="false"
       id="guide1382"
       orientation="0,78.000005"
       position="0.97013831,0.97013129" />
    <sodipodi:guide
       inkscape:locked="false"
       id="guide1384"
       orientation="-78.000048,0"
       position="21.607639,0.97013129" />
    <sodipodi:guide
       inkscape:locked="false"
       id="guide1386"
       orientation="0,-78.000005"
       position="21.607639,21.607643" />
  </sodipodi:namedview>
  <metadata
     id="metadata828">
    <rdf:RDF>
      <cc:Work
         rdf:about="">
        <dc:format>image/svg+xml</dc:format>
        <dc:type
           rdf:resource="http://purl.org/dc/dcmitype/StillImage" />
      </cc:Work>
    </rdf:RDF>
  </metadata>
  <g
     transform="translate(0,-274.42223)"
     id="layer1"
     inkscape:groupmode="layer"
     inkscape:label="Icon">
    <path
       sodipodi:nodetypes="sccscccsscssssssccsscccccsccscccccscccscssccccssccsscscccsccscccccccccccccccccccccccccccccccscccccsccsccccscccccsscscccsccscccc"
       d="m 18.253662,291.73153 c 0.0014,-0.0126 0.002,-0.0246 0.002,-0.037 v -4.08162 h 2.327991 c 0.547237,0 0.997346,-0.45205 0.997339,-0.99929 v -5.23033 l 0.02664,-0.16959 c -4e-6,-2.11592 -1.722045,-3.84056 -3.837966,-3.84056 h -5.7e-5 c -1.309646,0 -2.467294,0.66128 -3.160297,1.66656 v -0.6257 c 0,-0.54721 -0.4527,-0.99928 -0.999937,-0.99928 H 1.9674809 c -0.5472368,-6e-5 -0.99733606,0.452 -0.99733606,0.99922 v 14.63587 c 0,0.54723 0.45009926,1.00005 0.99733606,0.99928 l 14.0413531,-0.0195 c 1.243237,-0.0195 2.244828,-1.04508 2.244828,-2.2981 z m -2.181137,1.63991 c -0.76135,0 -1.430993,-0.85651 -1.430993,-1.61572 l -0.03216,-10.54206 c 0,-1.83733 1.698232,-3.09661 3.298593,-3.11871 1.600362,-0.0221 3.002438,1.38 3.002438,3.11872 l 0.0052,0.16958 v 5.23034 c 4e-6,0.18767 -0.144349,0.33397 -0.332013,0.33397 h -2.327991 v -3.60211 c 0.0372,-0.10914 0.0673,-0.20136 0.10071,-0.24561 0.04006,-0.053 0.09392,-0.10448 0.304726,-0.15268 0.179974,-0.041 0.292228,-0.22054 0.250146,-0.40024 -0.03393,-0.14634 -0.161744,-0.25179 -0.311872,-0.2573 v -6.5e-4 c -0.0288,-0.001 -0.05763,10e-4 -0.08576,0.008 -0.315659,0.072 -0.549113,0.21964 -0.687416,0.40283 -0.138306,0.18318 -0.178688,0.36487 -0.218311,0.48081 -0.01157,0.0341 -0.01746,0.0699 -0.01753,0.10586 l 0.01131,8.46925 c 0.0012,0.9321 -0.75055,1.6159 -1.529137,1.6159 z M 1.9674809,278.08002 H 13.609376 c 0.187665,0 0.33396,0.1463 0.33396,0.33396 -0.01108,4.47998 0,8.83633 0,13.34174 0,0.74716 0.244847,1.37781 0.678319,1.62808 H 1.9674775 c -0.1876616,0 -0.3320106,-0.14631 -0.3320106,-0.33396 v -14.63586 c 0,-0.18765 0.144349,-0.33396 0.3320106,-0.33396 z m 0.6529803,1.21565 c -0.1837264,-6.7e-4 -0.3332449,0.14763 -0.3339601,0.33136 -6.654e-4,0.18474 0.1492224,0.33469 0.3339601,0.33396 H 12.931706 c 0.184738,6.6e-4 0.334682,-0.14922 0.33396,-0.33396 -6.65e-4,-0.18373 -0.150233,-0.33209 -0.33396,-0.33136 z m 0,2.66195 c -0.183723,-7.3e-4 -0.3332449,0.14764 -0.3339601,0.33136 -6.654e-4,0.18474 0.1492192,0.33468 0.3339601,0.33397 h 4.6559801 c 0.1847409,7.3e-4 0.3346819,-0.14923 0.3339601,-0.33397 -6.654e-4,-0.18372 -0.1502371,-0.33208 -0.3339601,-0.33136 z m 5.9872795,0 c -0.1829578,3.6e-4 -0.3312822,0.14841 -0.332014,0.33136 v 4.10825 c -6.653e-4,0.18397 0.1480415,0.33359 0.332014,0.33397 h 3.9926013 c 0.183719,-7.3e-4 0.332066,-0.15025 0.331364,-0.33397 v -4.10825 c -6.65e-4,-0.1827 -0.14866,-0.33063 -0.331364,-0.33136 z m 0.3339634,0.66533 h 3.3246769 v 2.12981 l -0.690016,-1.20655 c -0.06446,-0.11341 -0.189068,-0.17874 -0.319016,-0.16698 -0.113752,0.0113 -0.214415,0.0798 -0.265741,0.18193 l -0.40998,0.81801 -0.346309,-0.52108 c -0.131541,-0.19888 -0.4233294,-0.19888 -0.5548709,0 l -0.738744,1.10844 z m -6.3212429,1.4463 c -0.1839759,-7.4e-4 -0.3336009,0.14803 -0.3339601,0.33201 -6.654e-4,0.18473 0.1492192,0.33468 0.3339601,0.33396 h 4.6559801 c 0.1847409,7.3e-4 0.3346819,-0.14923 0.3339601,-0.33396 -3.327e-4,-0.18398 -0.1499843,-0.33274 -0.3339601,-0.33201 z m 8.6882138,0.3463 0.942763,1.65032 H 9.0092746 l 0.9486108,-1.42161 0.3878876,0.58216 c 0.142047,0.21263 0.461283,0.19201 0.575014,-0.037 z m -8.6882138,1.65032 c -0.183723,-7.3e-4 -0.3332449,0.14765 -0.3339601,0.33136 -6.654e-4,0.18474 0.1492192,0.33469 0.3339601,0.33397 h 4.6559801 c 0.1847409,7.3e-4 0.3346819,-0.14923 0.3339601,-0.33397 -6.654e-4,-0.18371 -0.1502371,-0.33208 -0.3339601,-0.33136 z m 0,1.96933 c -0.1839759,-7.2e-4 -0.3336009,0.14804 -0.3339601,0.33202 -6.654e-4,0.18474 0.1492192,0.33468 0.3339601,0.33397 H 12.931706 c 0.184742,7.3e-4 0.334682,-0.14923 0.33396,-0.33397 -3.32e-4,-0.18398 -0.149984,-0.33273 -0.33396,-0.33202 z m 0.019495,1.99663 c -0.1837263,-7.3e-4 -0.3332482,0.14764 -0.3339634,0.33137 -6.654e-4,0.18473 0.1492224,0.33468 0.3339634,0.33396 H 12.95185 c 0.184741,7.3e-4 0.334681,-0.14923 0.33396,-0.33396 -6.66e-4,-0.18372 -0.150237,-0.33208 -0.33396,-0.33137 z m -0.019495,1.99663 c -0.183723,-7.3e-4 -0.3332449,0.14764 -0.3339601,0.33137 -6.654e-4,0.18473 0.1492192,0.33468 0.3339601,0.33395 H 12.931706 c 0.184742,7.4e-4 0.334682,-0.14922 0.33396,-0.33395 -6.65e-4,-0.18373 -0.150237,-0.33208 -0.33396,-0.33137 z"
       style="color:#000000;font-style:normal;font-variant:normal;font-weight:normal;font-stretch:normal;font-size:medium;line-height:normal;font-family:sans-serif;font-variant-ligatures:normal;font-variant-position:normal;font-variant-caps:normal;font-variant-numeric:normal;font-variant-alternates:normal;font-variant-east-asian:normal;font-feature-settings:normal;font-variation-settings:normal;text-indent:0;text-align:start;text-decoration:none;text-decoration-line:none;text-decoration-style:solid;text-decoration-color:#000000;letter-spacing:normal;word-spacing:normal;text-transform:none;writing-mode:lr-tb;direction:ltr;text-orientation:mixed;dominant-baseline:auto;baseline-shift:baseline;text-anchor:start;white-space:normal;shape-padding:0;shape-margin:0;inline-size:0;clip-rule:nonzero;display:inline;overflow:visible;visibility:visible;opacity:1;isolation:auto;mix-blend-mode:normal;color-interpolation:sRGB;color-interpolation-filters:linearRGB;solid-color:#000000;solid-opacity:1;vector-effect:none;fill:#000000;fill-opacity:1;fill-rule:nonzero;stroke:none;stroke-width:0.529167;stroke-linecap:round;stroke-linejoin:round;stroke-miterlimit:1.5;stroke-dasharray:none;stroke-dashoffset:0;stroke-opacity:1;color-rendering:auto;image-rendering:auto;shape-rendering:auto;text-rendering:auto;enable-background:accumulate;stop-color:#000000;stop-opacity:1"
       id="path1528" />
  </g>
</svg>
